# File created by Blade
# Date/Time:  Fri Jan 16 17:18:57 2015
#---------------------------------------------------------
:version 1.10
:name HOM
:units
  mass 1.0
  length 1.000000
  angle deg
:documentation
     Acclaim Skeleton File
:root
   axis xyz
   order TX TY TZ RX RY RZ
   position 0.000000 0.000000 0.000000
   orientation 0 0 0
:bonedata
   begin
      id 1
      name Spine_dum
      direction 0.000000 1.000000 0.000000
      length 7.170412
      axis 0.0 0.0 0.0 xyz
   end
   begin
      id 2
      name LeftUpLeg_dum
      direction 1.000000 0.000000 0.000000
      length 4.318350
      axis 0.0 0.0 0.0 xyz
   end
   begin
      id 3
      name RightUpLeg_dum
      direction -1.000000 0.000000 0.000000
      length 4.318350
      axis 0.0 0.0 0.0 xyz
   end
   begin
      id 4
      name Spine
      direction 0.000000 1.000000 0.000000
      length 0.000000
      axis 0.0 0.0 0.0 xyz
      dof rx ry rz
   end
   begin
      id 5
      name Spine_dum1
      direction 0.000000 1.000000 0.000000
      length 14.276153
      axis 0.0 0.0 0.0 xyz
   end
   begin
      id 6
      name Spine_dum2
      direction 0.000000 1.000000 0.000000
      length 10.718243
      axis 0.0 0.0 0.0 xyz
   end
   begin
      id 7
      name Spine_dum3
      direction 0.000000 1.000000 0.000000
      length 10.718243
      axis 0.0 0.0 0.0 xyz
   end
   begin
      id 8
      name Head
      direction 0.000000 1.000000 0.000000
      length 4.527550
      axis 0.0 0.0 0.0 xyz
      dof rx ry rz
   end
   begin
      id 9
      name LeftShoulder
      direction 1.000000 0.000000 0.000000
      length 7.058872
      axis 0.0 0.0 -90.0 xyz
      dof rx ry rz
   end
   begin
      id 10
      name LeftArm
      direction 1.000000 0.000000 0.000000
      length 10.955525
      axis 0.0 0.0 -90.0 xyz
      dof rx ry rz
   end
   begin
      id 11
      name LeftForeArm
      direction 1.000000 0.000000 0.000000
      length 8.193716
      axis 0.0 0.0 -90.0 xyz
      dof ry rz rx
   end
   begin
      id 12
      name LeftHand
      direction 0.000000 0.000000 0.000000
      length 0.000000
      axis 0.0 0.0 -90.0 xyz
      dof rx ry rz
   end
   begin
      id 13
      name LeftHand_dum1
      direction 0.000000 0.000000 0.000000
      length 0.000000
      axis 0.0 0.0 -90.0 xyz
   end
   begin
      id 14
      name LeftHand_dum2
      direction 1.000000 0.000000 0.000000
      length 3.937000
      axis 0.0 0.0 -90.0 xyz
   end
   begin
      id 15
      name LeftHandThumb1
      direction 0.000000 0.000000 1.000000
      length 3.937000
      axis 0.0 0.0 -90.0 xyz
      dof rx rz ry
   end
   begin
      id 16
      name RightShoulder
      direction -1.000000 0.000000 0.000000
      length 7.058872
      axis 0.0 0.0 90.0 xyz
      dof rx ry rz
   end
   begin
      id 17
      name RightArm
      direction -1.000000 0.000000 0.000000
      length 10.955525
      axis 0.0 0.0 90.0 xyz
      dof rx ry rz
   end
   begin
      id 18
      name RightForeArm
      direction -1.000000 0.000000 0.000000
      length 8.193716
      axis 0.0 0.0 90.0 xyz
      dof ry rz rx
   end
   begin
      id 19
      name RightHand
      direction 0.000000 0.000000 0.000000
      length 0.000000
      axis 0.0 0.0 90.0 xyz
      dof rx ry rz
   end
   begin
      id 20
      name RightHand_dum1
      direction 0.000000 0.000000 0.000000
      length 0.000000
      axis 0.0 0.0 90.0 xyz
   end
   begin
      id 21
      name RightHand_dum2
      direction -1.000000 0.000000 0.000000
      length 3.937000
      axis 0.0 0.0 90.0 xyz
   end
   begin
      id 22
      name RightHandThumb1
      direction 0.000000 0.000000 1.000000
      length 3.937000
      axis 0.0 0.0 90.0 xyz
      dof rx rz ry
   end
   begin
      id 23
      name LeftUpLeg
      direction 0.000000 -1.000000 0.000000
      length 17.323638
      axis 0.0 0.0 0.0 xyz
      dof rx ry rz
   end
   begin
      id 24
      name LeftLeg
      direction 0.000000 -1.000000 0.000000
      length 16.270368
      axis 0.0 0.0 0.0 xyz
      dof rx ry rz
   end
   begin
      id 25
      name LeftFoot
      direction 0.000000 -0.258819 0.965926
      length 4.922846
      axis 15.0 0.0 0.0 xyz
      dof rx ry rz
   end
   begin
      id 26
      name LeftToeBase
      direction 0.000000 0.000000 1.000000
      length 2.952750
      axis 0.0 0.0 0.0 xyz
      dof rx ry rz
   end
   begin
      id 27
      name RightUpLeg
      direction 0.000000 -1.000000 0.000000
      length 17.323638
      axis 0.0 0.0 0.0 xyz
      dof rx ry rz
   end
   begin
      id 28
      name RightLeg
      direction 0.000000 -1.000000 0.000000
      length 16.270368
      axis 0.0 0.0 0.0 xyz
      dof rx ry rz
   end
   begin
      id 29
      name RightFoot
      direction 0.000000 -0.258819 0.965926
      length 4.922846
      axis 15.0 0.0 0.0 xyz
      dof rx ry rz
   end
   begin
      id 30
      name RightToeBase
      direction 0.000000 0.000000 1.000000
      length 2.952750
      axis 0.0 0.0 0.0 xyz
      dof rx ry rz
   end
:hierarchy
   begin
      root Spine_dum LeftUpLeg_dum RightUpLeg_dum
      Spine_dum Spine
      LeftUpLeg_dum LeftUpLeg
      RightUpLeg_dum RightUpLeg
      Spine Spine_dum1 Spine_dum2 Spine_dum3
      Spine_dum1 Head
      Spine_dum2 LeftShoulder
      Spine_dum3 RightShoulder
      LeftShoulder LeftArm
      LeftArm LeftForeArm
      LeftForeArm LeftHand
      LeftHand LeftHand_dum1 LeftHand_dum2
      LeftHand_dum1 LeftHandThumb1
      RightShoulder RightArm
      RightArm RightForeArm
      RightForeArm RightHand
      RightHand RightHand_dum1 RightHand_dum2
      RightHand_dum1 RightHandThumb1
      LeftUpLeg LeftLeg
      LeftLeg LeftFoot
      LeftFoot LeftToeBase
      RightUpLeg RightLeg
      RightLeg RightFoot
      RightFoot RightToeBase
   end

# File created by Blade
# Date/Time:  Fri Jan 16 17:19:08 2015
# Frame Rate: 120.000 fps
#------------------------------------------------------
:FULLY-SPECIFIED
:DEGREES
1089
root -5.522085 35.209890 -9.585976 -1.228017 -6.327953 -6.127795
Spine -1.314697 1.209390 9.885396
Head 3.237150 -0.726936 -8.268629
LeftShoulder -19.905090 13.388294 -15.460642
LeftArm 20.328269 -6.101568 -74.798388
LeftForeArm 14.556428 -0.000000 9.510945
LeftHand 0.361709 -0.000000 -5.632045
LeftHandThumb1 -26.253704 0.000000 33.147579
RightShoulder -0.279724 8.958325 -3.588571
RightArm -4.387701 22.212502 46.778859
RightForeArm 8.963333 -0.000000 17.210790
RightHand 0.235615 -0.000000 -3.800157
RightHandThumb1 -24.326973 -0.000000 -32.862282
LeftUpLeg 12.274286 15.036930 7.657806
LeftLeg -9.234453 -0.000000 0.000000
LeftFoot -16.179906 27.759392 -8.981378
LeftToeBase 22.610294 -0.000000 -0.000000
RightUpLeg 8.791565 -3.349195 4.606858
RightLeg -5.379673 -0.000000 0.000000
RightFoot -4.115216 -28.298878 3.402997
RightToeBase 13.567735 -0.000000 -0.000000
1090
root -5.522128 35.209721 -9.585682 -1.224112 -6.364430 -6.133730
Spine -1.315656 1.189787 9.872605
Head 3.248831 -0.791152 -8.250109
LeftShoulder -19.898548 13.383576 -15.451335
LeftArm 20.329879 -6.149977 -74.807699
LeftForeArm 14.601213 -0.000000 9.488192
LeftHand 0.370135 -0.000000 -5.632106
LeftHandThumb1 -26.253704 0.000000 33.147579
RightShoulder -0.245682 8.947592 -3.521850
RightArm -4.472665 22.475646 46.619366
RightForeArm 9.133226 -0.000000 18.035617
RightHand 0.267878 0.000000 -4.140814
RightHandThumb1 -24.326973 -0.000000 -32.862282
LeftUpLeg 12.279588 15.049865 7.661874
LeftLeg -9.232926 -0.000000 0.000000
LeftFoot -16.194032 27.787107 -8.983334
LeftToeBase 22.605156 -0.000000 -0.000000
RightUpLeg 8.790615 -3.287088 4.614795
RightLeg -5.386484 -0.000000 0.000000
RightFoot -4.100161 -28.311031 3.400291
RightToeBase 13.556111 -0.000000 -0.000000
1091
root -5.522936 35.209559 -9.585314 -1.218656 -6.392601 -6.137290
Spine -1.323091 1.165839 9.855615
Head 3.265764 -0.842144 -8.237715
LeftShoulder -19.892054 13.379361 -15.444396
LeftArm 20.324799 -6.182073 -74.808577
LeftForeArm 14.620876 -0.000000 9.504422
LeftHand 0.355230 -0.000000 -5.652714
LeftHandThumb1 -26.253704 0.000000 33.147579
RightShoulder -0.226095 8.911067 -3.456549
RightArm -4.546374 22.824177 46.468339
RightForeArm 9.215233 0.000000 18.969984
RightHand 0.286932 0.000000 -4.337314
RightHandThumb1 -24.326973 -0.000000 -32.862282
LeftUpLeg 12.285055 15.056764 7.661293
LeftLeg -9.243917 -0.000000 0.000000
LeftFoot -16.178809 27.843661 -8.941304
LeftToeBase 22.622087 -0.000000 -0.000000
RightUpLeg 8.780361 -3.281303 4.617525
RightLeg -5.377027 -0.000000 0.000000
RightFoot -4.113615 -28.280747 3.417171
RightToeBase 13.587051 -0.000000 -0.000000
1092
root -5.524095 35.209377 -9.585042 -1.215869 -6.425705 -6.147337
Spine -1.325154 1.145388 9.845233
Head 3.280224 -0.897659 -8.223687
LeftShoulder -19.881179 13.381948 -15.429232
LeftArm 20.317410 -6.147313 -74.788102
LeftForeArm 14.607135 -0.000000 9.525321
LeftHand 0.261421 -0.000000 -5.822925
LeftHandThumb1 -26.253704 0.000000 33.147579
RightShoulder -0.198218 8.885333 -3.377192
RightArm -4.647330 23.164659 46.294410
RightForeArm 9.350630 -0.000000 20.002387
RightHand 0.313598 0.000000 -4.648819
RightHandThumb1 -24.326973 -0.000000 -32.862282
LeftUpLeg 12.292024 15.092657 7.676272
LeftLeg -9.241707 -0.000000 0.000000
LeftFoot -16.197446 27.833879 -8.967231
LeftToeBase 22.601215 -0.000000 -0.000000
RightUpLeg 8.776257 -3.265342 4.628791
RightLeg -5.376580 -0.000000 0.000000
RightFoot -4.102089 -28.271128 3.419028
RightToeBase 13.554392 -0.000000 -0.000000
1093
root -5.524198 35.209307 -9.584703 -1.213377 -6.458104 -6.152716
Spine -1.329287 1.128400 9.839081
Head 3.298781 -0.938798 -8.227846
LeftShoulder -19.882750 13.383531 -15.437179
LeftArm 20.329759 -6.176379 -74.782014
LeftForeArm 14.612384 -0.000000 9.553541
LeftHand 0.351792 -0.000000 -5.676197
LeftHandThumb1 -26.253704 0.000000 33.147579
RightShoulder -0.165561 8.858694 -3.292913
RightArm -4.788665 23.587965 46.102970
RightForeArm 9.325737 -0.000000 21.169005
RightHand 0.314306 -0.000000 -4.956160
RightHandThumb1 -24.326973 -0.000000 -32.862282
LeftUpLeg 12.297879 15.121148 7.681276
LeftLeg -9.238950 -0.000000 0.000000
LeftFoot -16.208960 27.838465 -8.968999
LeftToeBase 22.590136 -0.000000 -0.000000
RightUpLeg 8.771212 -3.236957 4.632139
RightLeg -5.369684 -0.000000 0.000000
RightFoot -4.100112 -28.255850 3.411197
RightToeBase 13.566292 -0.000000 -0.000000
1094
root -5.524624 35.208894 -9.584221 -1.209700 -6.485053 -6.157586
Spine -1.337347 1.117975 9.825185
Head 3.323968 -0.977675 -8.223389
LeftShoulder -19.876774 13.388349 -15.424960
LeftArm 20.344772 -6.120884 -74.754081
LeftForeArm 14.583008 -0.000000 9.554687
LeftHand 0.361473 0.000000 -5.651329
LeftHandThumb1 -26.253704 0.000000 33.147579
RightShoulder -0.152663 8.817776 -3.207774
RightArm -4.922005 23.978788 45.904872
RightForeArm 9.350029 -0.000000 22.430766
RightHand 0.362275 -0.000000 -5.176703
RightHandThumb1 -24.326973 -0.000000 -32.862282
LeftUpLeg 12.304219 15.127599 7.681614
LeftLeg -9.245343 -0.000000 0.000000
LeftFoot -16.187655 27.890145 -8.896760
LeftToeBase 22.620754 -0.000000 -0.000000
RightUpLeg 8.769238 -3.209639 4.637566
RightLeg -5.372613 -0.000000 0.000000
RightFoot -4.101553 -28.246699 3.407587
RightToeBase 13.585335 -0.000000 -0.000000
1095
root -5.524941 35.208681 -9.583361 -1.214735 -6.513261 -6.167602
Spine -1.333391 1.114159 9.827091
Head 3.344937 -1.010422 -8.242424
LeftShoulder -19.853664 13.409921 -15.417724
LeftArm 20.357962 -6.056751 -74.729701
LeftForeArm 14.534461 -0.000000 9.575329
LeftHand 0.338998 -0.000000 -5.635727
LeftHandThumb1 -26.253704 0.000000 33.147579
RightShoulder -0.146652 8.769975 -3.112480
RightArm -5.062866 24.316572 45.693534
RightForeArm 9.470946 0.000000 23.812112
RightHand 0.456346 -0.000000 -5.647258
RightHandThumb1 -24.326973 -0.000000 -32.862282
LeftUpLeg 12.318640 15.133321 7.694897
LeftLeg -9.246235 -0.000000 0.000000
LeftFoot -16.233833 27.918376 -8.874610
LeftToeBase 22.783275 -0.000000 -0.000000
RightUpLeg 8.776989 -3.194484 4.644445
RightLeg -5.375667 -0.000000 0.000000
RightFoot -4.088076 -28.238289 3.415486
RightToeBase 13.547416 -0.000000 -0.000000
1096
root -5.525016 35.208597 -9.583767 -1.207102 -6.535478 -6.176043
Spine -1.340424 1.103054 9.827704
Head 3.351521 -1.027408 -8.258424
LeftShoulder -19.858739 13.412725 -15.419826
LeftArm 20.384209 -6.029833 -74.712867
LeftForeArm 14.547674 0.000000 9.572547
LeftHand 0.363275 -0.000000 -5.633886
LeftHandThumb1 -26.253704 0.000000 33.147579
RightShoulder -0.147334 8.729810 -3.022310
RightArm -5.199831 24.679046 45.492440
RightForeArm 9.635391 0.000000 25.269255
RightHand 0.515544 -0.000000 -6.111037
RightHandThumb1 -24.326973 -0.000000 -32.862282
LeftUpLeg 12.319278 15.157883 7.701579
LeftLeg -9.249778 -0.000000 0.000000
LeftFoot -16.210858 27.896607 -8.915024
LeftToeBase 22.616921 -0.000000 -0.000000
RightUpLeg 8.769074 -3.191252 4.650817
RightLeg -5.376721 -0.000000 0.000000
RightFoot -4.078527 -28.211261 3.407026
RightToeBase 13.532502 -0.000000 -0.000000
1097
root -5.524189 35.208161 -9.583299 -1.202741 -6.567504 -6.184461
Spine -1.341322 1.116563 9.832605
Head 3.357762 -1.051272 -8.280143
LeftShoulder -19.844816 13.407512 -15.406793
LeftArm 20.387148 -5.992407 -74.704625
LeftForeArm 14.540485 -0.000000 9.588948
LeftHand 0.385207 -0.000000 -5.672216
LeftHandThumb1 -26.253704 0.000000 33.147579
RightShoulder -0.165793 8.678091 -2.941812
RightArm -5.335678 25.064079 45.296027
RightForeArm 9.811396 -0.000000 26.773454
RightHand 0.689420 -0.000000 -6.504789
RightHandThumb1 -24.326973 -0.000000 -32.862282
LeftUpLeg 12.332478 15.227695 7.714358
LeftLeg -9.264908 -0.000000 0.000000
LeftFoot -16.205059 27.871085 -8.887462
LeftToeBase 22.651582 -0.000000 -0.000000
RightUpLeg 8.768299 -3.144848 4.659714
RightLeg -5.385193 -0.000000 0.000000
RightFoot -4.077717 -28.223687 3.422774
RightToeBase 13.530499 -0.000000 -0.000000
1098
root -5.523566 35.207826 -9.583004 -1.201007 -6.593645 -6.189448
Spine -1.347122 1.126397 9.839485
Head 3.382392 -1.072780 -8.327962
LeftShoulder -19.822163 13.425475 -15.405239
LeftArm 20.411780 -5.979225 -74.697674
LeftForeArm 14.499701 0.000000 9.602068
LeftHand 0.408321 -0.000000 -5.714377
LeftHandThumb1 -26.253704 0.000000 33.147579
RightShoulder -0.189303 8.607324 -2.852971
RightArm -5.453091 25.475300 45.084683
RightForeArm 9.946056 -0.000000 28.360501
RightHand 0.908707 0.000000 -6.985474
RightHandThumb1 -24.326973 -0.000000 -32.862282
LeftUpLeg 12.332745 15.196448 7.710427
LeftLeg -9.259244 -0.000000 0.000000
LeftFoot -16.231823 27.929784 -8.901136
LeftToeBase 22.642600 -0.000000 -0.000000
RightUpLeg 8.766771 -3.125500 4.662844
RightLeg -5.385461 -0.000000 0.000000
RightFoot -4.075804 -28.214619 3.436899
RightToeBase 13.539811 -0.000000 -0.000000
1099
root -5.523182 35.207519 -9.581076 -1.199286 -6.620131 -6.197038
Spine -1.350027 1.135991 9.846570
Head 3.383621 -1.082002 -8.368483
LeftShoulder -19.813702 13.410621 -15.397921
LeftArm 20.416435 -5.989361 -74.705627
LeftForeArm 14.496335 0.000000 9.625682
LeftHand 0.391284 -0.000000 -5.782789
LeftHandThumb1 -26.253704 0.000000 33.147579
RightShoulder -0.210746 8.540407 -2.765509
RightArm -5.588851 25.917596 44.864358
RightForeArm 9.989410 -0.000000 30.008324
RightHand 1.087180 -0.000000 -7.351502
RightHandThumb1 -24.326973 -0.000000 -32.862282
LeftUpLeg 12.352520 15.234001 7.719286
LeftLeg -9.278283 -0.000000 0.000000
LeftFoot -16.241438 27.918755 -8.905583
LeftToeBase 22.680229 -0.000000 -0.000000
RightUpLeg 8.769559 -3.116365 4.667574
RightLeg -5.388861 -0.000000 0.000000
RightFoot -4.066177 -28.197925 3.433782
RightToeBase 13.543326 -0.000000 -0.000000
1100
root -5.521656 35.207079 -9.579448 -1.201479 -6.641822 -6.201482
Spine -1.350248 1.130247 9.855284
Head 3.392219 -1.079841 -8.407485
LeftShoulder -19.804848 13.406023 -15.386594
LeftArm 20.419698 -5.945403 -74.700821
LeftForeArm 14.467283 -0.000000 9.655328
LeftHand 0.288476 -0.000000 -5.899490
LeftHandThumb1 -26.253704 0.000000 33.147579
RightShoulder -0.218060 8.512477 -2.689700
RightArm -5.789364 26.472546 44.631541
RightForeArm 9.783446 0.000000 31.763708
RightHand 1.254844 -0.000000 -7.505677
RightHandThumb1 -24.326973 -0.000000 -32.862282
LeftUpLeg 12.365054 15.233212 7.720010
LeftLeg -9.280338 -0.000000 0.000000
LeftFoot -16.247733 27.949001 -8.906334
LeftToeBase 22.641751 -0.000000 -0.000000
RightUpLeg 8.776717 -3.098003 4.669134
RightLeg -5.395894 -0.000000 0.000000
RightFoot -4.065012 -28.197349 3.428460
RightToeBase 13.522193 -0.000000 -0.000000
